<svg viewBox="0 0 160 160" xmlns="http://www.w3.org/2000/svg">

<path fill="#1c1e20" d="M0,73C0,35.81722,35.81722,0,80,0C124.18277990000001,0,160,35.81722,160,73C160,73,112,73,112,73C112,62.326888,97.6731119,48,80,48C62.326888,48,48,62.326888,48,73C48,73,0,73,0,73" />

<path fill="#1c1e20" d="M61,80a19,19 0 1,0 38,0a19,19 0 1,0 -38,0" />

<path fill="#1c1e20" d="M160,87C160,124.18278000000001,124.18278000000001,160,80,160C35.817220099999986,160,0,124.18278000000001,0,87C0,87,48,87,48,87C48,97.673112,62.326888100000005,112,80,112C97.673112,112,112,97.673112,112,87C112,87,160,87,160,87" />

</svg>